<svg id="Layer_1" data-name="Layer 1" xmlns="http://www.w3.org/2000/svg" viewBox="0 0 151.85 48.6"><path d="M84.52,115v1.58c.3,0,.4-.19.54-.32a6.09,6.09,0,0,1,3.6-1.78A8.78,8.78,0,0,1,96,116.9a9.11,9.11,0,0,1,2.82,6.42,9.53,9.53,0,0,1-1.55,6,8.26,8.26,0,0,1-5.86,3.78,7.46,7.46,0,0,1-6.63-1.82l-.24-.15c-.06,1.45,0,2.84,0,4.23s0,2.82,0,4.22v12.7a45.9,45.9,0,0,1-6.2.08c0-.13,0-.26-.06-.4a1.58,1.58,0,0,1,0-.31l0-35.74v-.78A49.3,49.3,0,0,1,84.52,115Zm3.78,12.74a3.94,3.94,0,0,0,4-3.94,4,4,0,1,0-4,3.94Z" transform="translate(-33.4 -104.06)" style="fill:#951b1f"/><path d="M62.19,117.92c.12-.15.21-.25.29-.37a6.75,6.75,0,0,1,6.57-2.77,5.52,5.52,0,0,1,.8.12,4.81,4.81,0,0,1,3.87,3.67,8.69,8.69,0,0,1,.37,2.38c0,3.68,0,7.36,0,11,0,.18,0,.37,0,.59H67.86c0-.26,0-.52,0-.78,0-2.77,0-5.54,0-8.31a9.57,9.57,0,0,0-.26-2.14,2,2,0,0,0-2.1-1.65,2.5,2.5,0,0,0-2.8,2,7.6,7.6,0,0,0-.29,2c0,2.71,0,5.42,0,8.13v.72a43.7,43.7,0,0,1-6.29,0v-.77c0-2.78,0-5.55,0-8.32a10.6,10.6,0,0,0-.29-2.32,1.92,1.92,0,0,0-2-1.56h-.49A2.24,2.24,0,0,0,51,121.15a8.05,8.05,0,0,0-.41,2.75v8.6a43,43,0,0,1-6.23,0V115c2.07,0,4.1,0,6.22,0v2.11c.36-.29.6-.47.83-.67A7.66,7.66,0,0,1,58.49,115a5.81,5.81,0,0,1,3.27,2.34C61.89,117.53,62,117.71,62.19,117.92Z" transform="translate(-33.4 -104.06)" style="fill:#951b1f"/><path d="M122.09,132.58h-6.18v-1.73a5,5,0,0,0-.41.36,6.14,6.14,0,0,1-4.6,2,8.78,8.78,0,0,1-8.22-4.71,9.36,9.36,0,0,1-1.1-5,9.26,9.26,0,0,1,3-6.74,7.92,7.92,0,0,1,5.42-2.25,13,13,0,0,1,2.41.17,6.21,6.21,0,0,1,3,1.5l.56.46v-1.5a45.82,45.82,0,0,1,6.17-.08C122.21,115.45,122.24,131.81,122.09,132.58Zm-10-4.81a4,4,0,1,0-4-4A3.91,3.91,0,0,0,112.09,127.77Z" transform="translate(-33.4 -104.06)" style="fill:#951b1f"/><path d="M175.15,133.35a12.77,12.77,0,0,1-6.41-1.43,9,9,0,0,1-4.66-9.26,8.65,8.65,0,0,1,5.53-7.28,12.33,12.33,0,0,1,10,0,8.63,8.63,0,0,1,5.37,6.24A9.23,9.23,0,0,1,177.77,133,25.07,25.07,0,0,1,175.15,133.35Zm-.52-13.53a3.93,3.93,0,0,0-4,4,4.07,4.07,0,0,0,4,4,4,4,0,0,0,3.93-4A3.87,3.87,0,0,0,174.63,119.82Z" transform="translate(-33.4 -104.06)" style="fill:#951b1f"/><path d="M143.74,118.37H143c-2.83,0-5.66,0-8.5,0a5.26,5.26,0,0,0-1.52.25c-.61.18-.84.62-.86,1.41s.18,1,.79,1.25a4.68,4.68,0,0,0,1.39.26c1.4,0,2.81,0,4.22,0a11.89,11.89,0,0,1,2.15.23,4.68,4.68,0,0,1,4.11,5,6.41,6.41,0,0,1-1.36,4.1,4,4,0,0,1-3.3,1.69c-4.51,0-9,0-13.53,0l-.41,0v-3.73h9.92a4.41,4.41,0,0,0,1.69-.31,1.39,1.39,0,0,0,.84-1.46,1.35,1.35,0,0,0-.85-1.43,3.64,3.64,0,0,0-1.45-.28c-1.43,0-2.86,0-4.28,0a13.27,13.27,0,0,1-3.08-.33l-.42-.12a3.2,3.2,0,0,1-2.58-2.75,9,9,0,0,1,0-4,4.26,4.26,0,0,1,2.14-2.76,7.76,7.76,0,0,1,3.82-.92c3.72,0,7.45,0,11.17,0,.2,0,.4,0,.63,0Z" transform="translate(-33.4 -104.06)" style="fill:#951b1f"/><path d="M158,104.06v6.27c.68,0,1.31,0,2,0h1.94v5.09H158c0,2,0,3.86,0,5.76v11.38h-6.44V115.51h-3.87a29.85,29.85,0,0,1,0-5.11c1.25-.11,2.52,0,3.85-.07,0-.26.05-.5.06-.74v-4.78c0-.24,0-.48,0-.75Z" transform="translate(-33.4 -104.06)" style="fill:#951b1f"/><path d="M33.84,115H40c.15.47.2,16.43.07,17.49a45.21,45.21,0,0,1-6.19,0Z" transform="translate(-33.4 -104.06)" style="fill:#951b1f"/><path d="M94.13,150.08c-.17.57-.33,1.09-.49,1.59s-.27.65-.88.66H90.71c-.67,0-.78-.16-.57-.79q1.52-4.69,3-9.38c.39-1.2.77-2.4,1.17-3.59.2-.6.31-.69.94-.7H98c.73,0,.84.09,1.07.78q1.81,5.61,3.64,11.2c.19.57.39,1.14.56,1.71s0,.76-.57.77h-2.11c-.56,0-.66-.09-.83-.64s-.26-.83-.37-1.25c-.07-.22-.18-.37-.43-.37Zm2.64-8.31-.19,0L95,147c1.13.06,2.14,0,3.27,0C97.8,145.18,97.29,143.47,96.77,141.77Z" transform="translate(-33.4 -104.06)" style="fill:#faad1b"/><path d="M131.64,142.4h-1a.61.61,0,0,1-.65-.46,1.8,1.8,0,0,0-2.63-.94,1,1,0,0,0-.27,1.68,2.83,2.83,0,0,0,.91.62c.64.28,1.32.48,2,.76a17.24,17.24,0,0,1,1.9.89,4.07,4.07,0,0,1-.26,7,6.54,6.54,0,0,1-6,0,4.07,4.07,0,0,1-2.23-3.43c0-.4.1-.62.49-.64.74,0,1.49,0,2.23,0a.54.54,0,0,1,.54.43,1.53,1.53,0,0,0,1.64,1.15,6.18,6.18,0,0,0,1.29-.09,1,1,0,0,0,.89-.84,1,1,0,0,0-.55-1.09,6.47,6.47,0,0,0-1.06-.51c-.69-.27-1.41-.48-2.09-.77a10.44,10.44,0,0,1-1.58-.85,4.22,4.22,0,0,1,.32-6.9,5.63,5.63,0,0,1,5.69,0,4.15,4.15,0,0,1,2.11,3.39c.06.46-.11.65-.58.68Z" transform="translate(-33.4 -104.06)" style="fill:#faad1b"/><path d="M161,142.79c0-.22,0-.44,0-.66,0-1.14,0-2.28,0-3.41,0-.73.11-.84.82-.85.52,0,1,0,1.55,0s.62.15.65.63c0,.15,0,.29,0,.44V151.3a1.92,1.92,0,0,1,0,.24c0,.7-.1.78-.8.79h-1.49c-.58,0-.6,0-.75-.6a1.43,1.43,0,0,0-.09-.19.82.82,0,0,0-.21.11,4.6,4.6,0,0,1-5.48.11,5.37,5.37,0,0,1-2.16-3.57,5.83,5.83,0,0,1,.81-4.17,4.79,4.79,0,0,1,5.08-2.18,3.88,3.88,0,0,1,1.9,1Zm-4.94,4.4a2.41,2.41,0,0,0,2.45,2.55,2.44,2.44,0,0,0,2.5-2.58,2.39,2.39,0,0,0-2.47-2.52A2.36,2.36,0,0,0,156,147.19Z" transform="translate(-33.4 -104.06)" style="fill:#faad1b"/><path d="M176.66,152.6a5.43,5.43,0,1,1,5.47-5.39A5.39,5.39,0,0,1,176.66,152.6Zm-2.38-5.41a2.39,2.39,0,1,0,2.38-2.46A2.31,2.31,0,0,0,174.28,147.19Z" transform="translate(-33.4 -104.06)" style="fill:#faad1b"/><path d="M148,151.55c-.24.2-.42.37-.62.51a3.27,3.27,0,0,1-5-1.57,6.37,6.37,0,0,1-.33-1.94c-.05-1.9,0-3.8,0-5.71,0-.69.11-.79.79-.79s1.08,0,1.62,0,.64.1.64.66c0,1.72,0,3.43,0,5.15a4.63,4.63,0,0,0,.08.92,1.23,1.23,0,0,0,1.31,1,1.3,1.3,0,0,0,1.44-.92,4.63,4.63,0,0,0,.14-1.11c0-1.57,0-3.14,0-4.71a5.24,5.24,0,0,1,0-.56.4.4,0,0,1,.44-.42h2.11a.41.41,0,0,1,.44.42c0,.17,0,.33,0,.5v8.5c0,.77-.09.84-.86.85H149C148.23,152.32,148.23,152.32,148,151.55Z" transform="translate(-33.4 -104.06)" style="fill:#faad1b"/><path d="M112.63,145c-.42,0-.73,0-1,0s-.59-.16-.6-.61,0-1.16,0-1.74.12-.55.61-.57l.8,0a.68.68,0,0,0,.17-.1c0-.18,0-.39,0-.61,0-.62,0-1.24,0-1.86s.13-.72.75-.72h1.67c.49,0,.62.14.63.63,0,.64,0,1.29,0,1.93,0,.22,0,.44,0,.72l1,.05c.45,0,.56.12.58.55q0,.9,0,1.8c0,.41-.15.53-.58.57-.16,0-.33,0-.5,0s-.31,0-.52.07c0,.27,0,.51,0,.76v5.51a5.15,5.15,0,0,1,0,.56.42.42,0,0,1-.44.43c-.7,0-1.4,0-2.11,0a.47.47,0,0,1-.48-.47c0-.19,0-.37,0-.56V145Z" transform="translate(-33.4 -104.06)" style="fill:#faad1b"/><path d="M136.06,141.91c0-.18,0-.4,0-.62,0-.62,0-1.24,0-1.86s.13-.7.69-.71h1.68c.56,0,.68.12.69.7s0,1.24,0,1.86c0,.22,0,.44,0,.72l1,.05c.52,0,.62.11.64.62s0,1.11,0,1.67-.15.6-.65.63h-.44l-.5.05c0,.25-.05.48-.05.72v5.58c0,.17,0,.33,0,.5a.47.47,0,0,1-.52.49c-.66,0-1.32,0-2,0-.38,0-.51-.16-.54-.54a4.13,4.13,0,0,1,0-.5v-5.51c0-.23,0-.45,0-.74l-.94-.05c-.52,0-.65-.16-.66-.69s0-1.12,0-1.67.12-.54.56-.57l.86-.05S136,142,136.06,141.91Z" transform="translate(-33.4 -104.06)" style="fill:#faad1b"/><path d="M107.87,143.26c.1-.15.21-.29.32-.44a2.43,2.43,0,0,1,1.62-.93c.38-.06.56.06.57.45,0,.8,0,1.61,0,2.41a.44.44,0,0,1-.5.5h-.18a2,2,0,0,0-2,2.12c0,1.3,0,2.61,0,3.91a4,4,0,0,1,0,.49c0,.38-.16.53-.54.54-.66,0-1.32,0-2,0a.47.47,0,0,1-.51-.5c0-.12,0-.25,0-.37v-8.57c0-.12,0-.24,0-.37a.46.46,0,0,1,.48-.46h2a.47.47,0,0,1,.51.5c0,.22,0,.45,0,.67Z" transform="translate(-33.4 -104.06)" style="fill:#faad1b"/><path d="M37,104.79a3.46,3.46,0,0,1,3.5,3.56A3.52,3.52,0,0,1,37,111.87a3.57,3.57,0,0,1-3.55-3.62A3.5,3.5,0,0,1,37,104.79Z" transform="translate(-33.4 -104.06)" style="fill:#951b1f"/><path d="M166.34,147.2V143a5.24,5.24,0,0,1,0-.56.41.41,0,0,1,.44-.42h2.11a.41.41,0,0,1,.44.42c0,.19,0,.37,0,.56v8.25a2.08,2.08,0,0,1,0,.25c0,.69-.1.78-.79.79h-1.49c-.62,0-.73-.11-.74-.73,0-1.46,0-2.93,0-4.4Z" transform="translate(-33.4 -104.06)" style="fill:#faad1b"/><path d="M167.88,137.88c.29,0,.57,0,.86,0,.46,0,.6.15.61.59s0,1.12,0,1.67-.14.58-.54.6q-1,0-1.92,0c-.39,0-.53-.15-.55-.52,0-.6,0-1.2,0-1.79,0-.38.15-.51.54-.54s.66,0,1,0Z" transform="translate(-33.4 -104.06)"/></svg>