<svg xmlns="http://www.w3.org/2000/svg" viewBox="0 0 74.85 23.99"><g id="Layer_2" data-name="Layer 2"><g id="Layer_1-2" data-name="Layer 1"><path d="M22.11,5.46a19.74,19.74,0,0,1,3.08,0v.82a.63.63,0,0,0,.18-.13,3.4,3.4,0,0,1,3-1,4.2,4.2,0,0,1,3.51,2.65,4.77,4.77,0,0,1-.13,4.2,4.24,4.24,0,0,1-4.52,2.31,3.31,3.31,0,0,1-1.81-.82c-.05,0-.11-.08-.2-.15v7c0,1.16,0,2.32,0,3.5H22.12C22.1,17.7,22.11,11.58,22.11,5.46Zm5,2.37a1.93,1.93,0,0,0-2,1.93,2,2,0,0,0,3.91,0A1.93,1.93,0,0,0,27.09,7.83Z" style="fill:#951b1f"/><path d="M5.39,5.45H8.46l0,1,.37-.29a3.75,3.75,0,0,1,3.45-.71A2.8,2.8,0,0,1,14,6.56l.21.29a1.22,1.22,0,0,0,.16-.18A3.24,3.24,0,0,1,17.26,5.3a4.16,4.16,0,0,1,1,.15,2.13,2.13,0,0,1,1.31,1A3.57,3.57,0,0,1,20.05,8c0,.16,0,.32,0,.49,0,1.73,0,3.46,0,5.2v.38a19.68,19.68,0,0,1-3.08,0c0-.11,0-.23,0-.34,0-1.37,0-2.74,0-4.1a7.23,7.23,0,0,0-.12-1,1,1,0,0,0-.93-.87,1.25,1.25,0,0,0-1.43.79,3.2,3.2,0,0,0-.18.74c0,.33,0,.67-.05,1v3.77a18.31,18.31,0,0,1-3.07,0c0-.1,0-.22,0-.34,0-1.38,0-2.75,0-4.13A4.79,4.79,0,0,0,11,8.56a1,1,0,0,0-1-.89,1.17,1.17,0,0,0-1.27.7A2.72,2.72,0,0,0,8.48,9.5c0,1.37,0,2.75,0,4.13a2.43,2.43,0,0,1,0,.27c0,.2,0,.22-.23.23H5.41C5.34,13.87,5.32,5.86,5.39,5.45Z" style="fill:#951b1f"/><path d="M40.66,13.24c-.19.18-.32.31-.46.43a3,3,0,0,1-1.93.72,4.31,4.31,0,0,1-3.11-1.05,4.39,4.39,0,0,1-1.55-3.24,5.26,5.26,0,0,1,.13-1.58,4.28,4.28,0,0,1,3.34-3.28,3.65,3.65,0,0,1,3.4.82l.16.12V5.43l.33,0h2.48c.31,0,.32,0,.32.33,0,2.68,0,5.36,0,8,0,.1,0,.2,0,.34-1,0-2,0-3.09,0Zm.06-3.46a1.94,1.94,0,0,0-1.94-2,2,2,0,0,0-1.93,2,1.94,1.94,0,1,0,3.87,0Z" style="fill:#951b1f"/><path d="M69.6,14.48a5.78,5.78,0,0,1-3-.75,4.27,4.27,0,0,1-2.22-3.26,4.41,4.41,0,0,1,3-5A6.22,6.22,0,0,1,72,5.57a4.22,4.22,0,0,1,2.7,3,4.53,4.53,0,0,1-3.4,5.68l-.6.12C70.33,14.43,70,14.45,69.6,14.48ZM67.66,9.72a2,2,0,1,0,2-1.93A2,2,0,0,0,67.66,9.72Z" style="fill:#951b1f"/><path d="M45.69,14.1V12.27l.39,0h4.53a2,2,0,0,0,.81-.13.71.71,0,0,0,.43-.71.65.65,0,0,0-.42-.7,2.63,2.63,0,0,0-.78-.15c-.81,0-1.63,0-2.44,0a5.14,5.14,0,0,1-1.5-.26,1.49,1.49,0,0,1-1.05-1.09,4.25,4.25,0,0,1,0-2.21A2.12,2.12,0,0,1,46.8,5.57a3.3,3.3,0,0,1,1.47-.37H54.2l.2,0c0,.62,0,1.23,0,1.88H49.73a2.7,2.7,0,0,0-.69.12c-.33.1-.38.39-.4.69a.52.52,0,0,0,.38.59,2.76,2.76,0,0,0,.8.15c.78,0,1.57,0,2.35,0A3.55,3.55,0,0,1,53.61,9a2.07,2.07,0,0,1,1.21,1.59,3.37,3.37,0,0,1-.44,2.44,2.17,2.17,0,0,1-1.91,1.07H46Z" style="fill:#951b1f"/><path d="M58.21,5.69h-1.9a14.58,14.58,0,0,1,0-2.56h1.91V.06a22.63,22.63,0,0,1,3.19,0c0,.5,0,1,0,1.51V3.12h1.84a13.13,13.13,0,0,1,0,2.52H61.43c0,.16,0,.29,0,.42v7.55c0,.58.05.52-.53.53H58.62l-.4,0c0-.57,0-1.13,0-1.69V5.69Z" style="fill:#951b1f"/><path d="M3.26,14.14h-3V5.48a27.72,27.72,0,0,1,3,0C3.31,5.69,3.33,13.69,3.26,14.14Z" style="fill:#951b1f"/><path d="M31.19,16.7h.7c.32,0,.36,0,.46.34.5,1.55,1,3.1,1.51,4.65.18.54.36,1.09.53,1.63a1,1,0,0,1,.07.23c0,.16,0,.25-.17.26q-.67,0-1.35,0c-.14,0-.2-.11-.24-.24s-.13-.42-.19-.64a.27.27,0,0,0-.31-.23h-2a.25.25,0,0,0-.3.22c-.05.2-.11.39-.17.58s-.13.31-.42.31H28.22c-.31,0-.36-.08-.27-.38.19-.6.4-1.2.59-1.8q.74-2.27,1.48-4.53c.12-.4.14-.41.56-.41Zm0,1.93h-.08c-.13.42-.26.83-.37,1.25a11.44,11.44,0,0,0-.36,1.27,4.62,4.62,0,0,0,1.53,0Z" style="fill:#faad1b"/><path d="M45.15,21.6h.49a.29.29,0,0,1,.32.23.73.73,0,0,0,.69.54,1.51,1.51,0,0,0,.79-.05.5.5,0,0,0,.38-.4.47.47,0,0,0-.24-.49,2.26,2.26,0,0,0-.49-.25c-.33-.13-.67-.23-1-.37a5.16,5.16,0,0,1-.84-.44,2.07,2.07,0,0,1,.21-3.48,2.76,2.76,0,0,1,3,.2,2,2,0,0,1,.79,1.46c0,.31,0,.39-.35.41s-.59,0-.89,0a.36.36,0,0,1-.4-.29.65.65,0,0,0-.69-.5,2,2,0,0,0-.42,0,.52.52,0,0,0-.41.37.5.5,0,0,0,.17.55,1.36,1.36,0,0,0,.41.26c.28.12.58.21.86.33a7,7,0,0,1,1,.44,1.82,1.82,0,0,1,1,1.8,1.87,1.87,0,0,1-1.12,1.73,3.2,3.2,0,0,1-2.89,0A2,2,0,0,1,44.34,22c-.05-.36,0-.44.38-.45h.43Z" style="fill:#faad1b"/><path d="M62.81,23.44a2,2,0,0,1-1.3.53,2.28,2.28,0,0,1-1.84-.73,2.88,2.88,0,0,1,.14-4,2.28,2.28,0,0,1,2.34-.46,4.36,4.36,0,0,1,.7.37,2.28,2.28,0,0,0,0-.26c0-.58,0-1.16,0-1.74,0-.36,0-.4.41-.4h.79c.24,0,.3.08.32.32a1.92,1.92,0,0,1,0,.24v6.21c0,.29-.06.34-.34.35h-.73C63,23.82,63,23.82,62.81,23.44Zm-1.17-3.39a1.24,1.24,0,1,0,1.23,1.23A1.17,1.17,0,0,0,61.64,20.05Z" style="fill:#faad1b"/><path d="M70.59,24a2.7,2.7,0,1,1,0-5.39,2.7,2.7,0,1,1,0,5.39Zm0-1.51a1.13,1.13,0,0,0,1.19-1.18,1.17,1.17,0,1,0-2.34,0A1.12,1.12,0,0,0,70.59,22.47Z" style="fill:#faad1b"/><path d="M56.46,23.46a1.58,1.58,0,0,1-1,.5,1.51,1.51,0,0,1-1.7-.94,2.39,2.39,0,0,1-.19-.82c0-1,0-2.06,0-3.09,0-.31.06-.37.38-.38h.76c.31,0,.38.07.38.38,0,.74,0,1.47,0,2.2,0,.21,0,.41,0,.61a.65.65,0,0,0,.61.65.67.67,0,0,0,.76-.52,2,2,0,0,0,0-.42c0-.79,0-1.57,0-2.36a1.93,1.93,0,0,1,0-.24c0-.21.08-.29.28-.29h1c.19,0,.25.08.27.27a1.92,1.92,0,0,1,0,.24V23.5c0,.25-.06.31-.31.32h-.82C56.59,23.82,56.59,23.81,56.46,23.46Z" style="fill:#faad1b"/><path d="M39.05,18.73v-.5c0-.28,0-.56,0-.83s.06-.27.25-.28.67,0,1,0c.19,0,.25.09.26.31s0,.59,0,.88c0,.12,0,.24,0,.39l.44,0c.28,0,.34.08.35.35s0,.53,0,.79-.07.31-.34.33l-.44,0c0,.14,0,.26,0,.38,0,.9,0,1.8,0,2.69v.28a.24.24,0,0,1-.26.24h-1a.24.24,0,0,1-.25-.25,2.44,2.44,0,0,1,0-.27V20.39c0-.12-.07-.19-.19-.19h-.34c-.2,0-.28-.08-.29-.28s0-.59,0-.89.09-.28.31-.3Z" style="fill:#faad1b"/><path d="M50.58,20.2h-.47c-.24,0-.31-.08-.32-.32s0-.55,0-.83.09-.31.35-.32h.45c0-.14,0-.25,0-.36,0-.3,0-.61,0-.92s.06-.32.32-.33.59,0,.89,0,.31.07.32.31,0,.62,0,.92c0,.11,0,.22,0,.36l.47,0c.24,0,.31.09.32.32v.83c0,.24-.08.3-.32.32h-.21l-.24,0a2,2,0,0,0,0,.35v2.93c0,.24-.08.3-.33.31h-.89c-.25,0-.3-.07-.31-.32s0-.67,0-1V20.6A3.37,3.37,0,0,0,50.58,20.2Z" style="fill:#faad1b"/><path d="M36.72,19.33a1.33,1.33,0,0,1,.59-.56l.17-.06c.37-.12.49,0,.49.34s0,.66,0,1,0,.27-.28.31c-.79.14-1,.42-1,1.23v1.74a2.62,2.62,0,0,1,0,.28.21.21,0,0,1-.23.22c-.35,0-.69,0-1,0-.15,0-.22-.09-.24-.23a1.93,1.93,0,0,1,0-.24V19.09c0-.28.09-.35.38-.36h.79c.3,0,.35.06.36.37,0,.07,0,.14,0,.21Z" style="fill:#faad1b"/><path d="M1.76,3.88A1.77,1.77,0,0,1,0,2.14,1.78,1.78,0,0,1,1.75.38,1.73,1.73,0,0,1,3.5,2.13,1.74,1.74,0,0,1,1.76,3.88Z" style="fill:#951b1f"/><path d="M65.51,21.27c0-.71,0-1.41,0-2.11,0-.38,0-.43.42-.43h.8c.22,0,.28.09.3.3a1.61,1.61,0,0,1,0,.22v4.06a1.2,1.2,0,0,1,0,.19c0,.26-.06.31-.33.32h-.86c-.28,0-.33-.06-.33-.35C65.5,22.73,65.51,22,65.51,21.27Z" style="fill:#faad1b"/><path d="M66.27,18.12h-.45c-.24,0-.3-.07-.31-.29s0-.57,0-.86.07-.26.26-.26.65,0,1,0,.27.07.28.28,0,.57,0,.85-.08.26-.27.27-.32,0-.49,0Z" style="fill:#faad1b"/><path d="M27.09,7.83a1.93,1.93,0,0,1,1.94,2,2,2,0,0,1-3.91,0A1.93,1.93,0,0,1,27.09,7.83Z" style="fill:#fff"/><path d="M40.72,9.78a1.94,1.94,0,1,1-3.87,0,2,2,0,0,1,1.93-1.95A1.94,1.94,0,0,1,40.72,9.78Z" style="fill:#fff"/><path d="M67.66,9.72a2,2,0,1,1,1.94,2A2,2,0,0,1,67.66,9.72Z" style="fill:#fff"/><path d="M31.24,18.63,32,21.1a4.62,4.62,0,0,1-1.53,0,11.44,11.44,0,0,1,.36-1.27c.11-.42.24-.83.37-1.25Z" style="fill:#fff"/><path d="M61.64,20.05a1.15,1.15,0,0,1,1.23,1.23,1.22,1.22,0,1,1-1.23-1.23Z" style="fill:#fff"/><path d="M70.59,22.47a1.12,1.12,0,0,1-1.15-1.19,1.17,1.17,0,1,1,2.34,0A1.13,1.13,0,0,1,70.59,22.47Z" style="fill:#fff"/></g></g></svg>